# xmcd CD database file
#
# Track frame offsets:
#	150
#	13312
#	29840
#	46687
#	63892
#	83137
#	94912
#	108624
#	121042
#	134502
#	151558
#	166839
#	178659
#	193487
#
# Disc length: 2732 seconds
#
# Revision: 0
# Processed by: cddbd v1.5.2PL0 Copyright (c) Steve Scherf et al.
# Submitted via: CDex 1.51
#
DISCID=b80aaa0e
DTITLE=Kenny Rogers - Kenny Rogers
DYEAR=2004
DGENRE=Country
TTITLE0=Ruby Don't ake your love to town
TTITLE1=Eyes that see in the dark
TTITLE2=Islands in the Stream
TTITLE3=Something burning
TTITLE4=Waht about me
TTITLE5=I just want to give my love to you
TTITLE6=I'm gonna sing you a sad song Suzy
TTITLE7=Reuben James
TTITLE8=A stranger in my place
TTITLE9=We've got tonight
TTITLE10=For the good times
TTITLE11=Elvira
TTITLE12=All God's lonely children
TTITLE13=Me and Bobby Mcgee
EXTD=YEAR: 2004
EXTT0=
EXTT1=
EXTT2=
EXTT3=
EXTT4=
EXTT5=
EXTT6=
EXTT7=
EXTT8=
EXTT9=
EXTT10=
EXTT11=
EXTT12=
EXTT13=
PLAYORDER=
